<?xml version="1.0" encoding="utf-8"?>

<!DOCTYPE svg PUBLIC "-//W3C//DTD SVG 1.1//EN" "http://www.w3.org/Graphics/SVG/1.1/DTD/svg11.dtd">
<!-- Uploaded to: SVG Repo, www.svgrepo.com, Generator: SVG Repo Mixer Tools -->
<svg height="800px" width="800px" version="1.1" id="_x32_" xmlns="http://www.w3.org/2000/svg" xmlns:xlink="http://www.w3.org/1999/xlink" 
	 viewBox="0 0 512 512"  xml:space="preserve">
<style type="text/css">
	.st0{fill:#000000;}
</style>
<g>
	<path class="st0" d="M433.838,416.037l-56.697-280.01c8.639-4.596,14.582-13.576,14.582-24.039V75.96
		c0-41.954-34.007-75.96-75.97-75.96H194.367c-41.944,0-75.95,34.006-75.95,75.96v36.028c0,11.136,6.684,20.687,16.252,24.95
		L78.162,416.037c-1.082,5.279-1.594,10.596-1.594,15.883c0,18.323,6.285,36.266,18.076,50.696
		C109.853,501.215,132.619,512,156.638,512h198.724c24.019,0,46.767-10.785,61.976-29.374c11.791-14.44,18.094-32.383,18.094-50.706
		C435.432,426.632,434.901,421.306,433.838,416.037z M387.242,457.999c-7.842,9.57-19.519,15.114-31.88,15.114H156.638
		c-12.361,0-24.057-5.544-31.88-15.114c-6.076-7.424-9.304-16.652-9.304-26.079c0-2.715,0.266-5.45,0.817-8.164l57.57-284.425h164.3
		l57.59,284.425c0.531,2.706,0.816,5.439,0.816,8.164C396.546,441.347,393.3,450.575,387.242,457.999z"/>
</g>
</svg>