<?xml version="1.0" encoding="UTF-8" standalone="no"?>
<!-- Created with Inkscape (http://www.inkscape.org/) -->

<svg
   width="248.87367mm"
   height="248.8737mm"
   viewBox="0 0 248.87367 248.8737"
   version="1.1"
   id="svg1"
   xml:space="preserve"
   xmlns="http://www.w3.org/2000/svg"
   xmlns:svg="http://www.w3.org/2000/svg"><defs
     id="defs1"><filter
       style="color-interpolation-filters:sRGB"
       id="filter15"
       x="-0.0703125"
       y="-0.0703125"
       width="1.1757812"
       height="1.1757812"><feFlood
         result="flood"
         in="SourceGraphic"
         flood-opacity="0.701961"
         flood-color="rgb(0,0,0)"
         id="feFlood14" /><feGaussianBlur
         result="blur"
         in="SourceGraphic"
         stdDeviation="15.000000"
         id="feGaussianBlur14" /><feOffset
         result="offset"
         in="blur"
         dx="18.000000"
         dy="18.000000"
         id="feOffset14" /><feComposite
         result="comp1"
         operator="in"
         in="flood"
         in2="offset"
         id="feComposite14" /><feComposite
         result="comp2"
         operator="over"
         in="SourceGraphic"
         in2="comp1"
         id="feComposite15" /></filter></defs><g
     id="layer1"
     transform="translate(15.676562,-7.8713541)"><g
       style="fill:#000000"
       id="g3"
       transform="matrix(0.41341146,0,0,0.41341146,-0.79375043,22.754166)"><g
         id="SVGRepo_iconCarrier"
         style="filter:url(#filter15)"> <path
   style="opacity:0.99;fill:#a02c5a"
   d="M 311.652,456.348 C 311.652,487.083 286.736,512 256,512 v 0 c -30.736,0 -55.652,-24.917 -55.652,-55.652 v -244.87 h 111.304 z"
   id="path1" /> <path
   style="fill:#de87aa"
   d="m 222.609,478.609 v 0 c -12.295,0 -22.261,-9.966 -22.261,-22.261 V 300.522 c 0,-12.295 9.966,-22.261 22.261,-22.261 v 0 c 12.295,0 22.261,9.966 22.261,22.261 v 155.826 c 0,12.294 -9.967,22.261 -22.261,22.261 z"
   id="path2" /> <path
   style="fill:#c83771"
   d="m 512,44.522 v 0 c 0,24.588 -19.933,44.522 -44.522,44.522 h -11.13 L 381.89,252.851 C 359.451,302.218 310.228,333.913 256,333.913 v 0 c -54.227,0 -103.451,-31.695 -125.89,-81.062 L 55.652,89.043 H 44.522 C 19.933,89.043 0,69.11 0,44.522 v 0 C 0,19.933 19.933,0 44.522,0 H 467.479 C 492.066,0 512,19.933 512,44.522 Z"
   id="path3" /> <path
   style="fill:#de87aa"
   d="m 347.067,66.783 v 22.261 0 l -54.151,119.132 c -16.319,35.903 -52.118,58.955 -91.557,58.955 v 0 c -39.438,0 -75.236,-23.051 -91.557,-58.955 L 55.652,89.043 v 0 -22.26 z"
   id="path4" /> <path
   style="fill:#a02c5a"
   d="m 512,44.522 c 0,24.588 -19.933,44.522 -44.522,44.522 H 44.522 C 19.933,89.043 0,69.11 0,44.522 Z"
   id="path5" /> <path
   style="fill:#ffffff"
   d="m 486.957,44.522 c 0,4.61 -3.738,8.348 -8.348,8.348 H 311.652 c -4.61,0 -8.348,-3.738 -8.348,-8.348 0,-4.61 3.738,-8.348 8.348,-8.348 h 166.957 c 4.61,0 8.348,3.738 8.348,8.348 z M 267.13,36.174 h -1.113 c -4.61,0 -8.348,3.738 -8.348,8.348 0,4.61 3.738,8.348 8.348,8.348 h 1.113 c 4.61,0 8.348,-3.738 8.348,-8.348 0,-4.61 -3.737,-8.348 -8.348,-8.348 z"
   id="path6" /> </g></g></g></svg>
