<?xml version="1.0" encoding="UTF-8" standalone="no"?>
<!-- Created with Inkscape (http://www.inkscape.org/) -->

<svg
   width="129.3735mm"
   height="28.777822mm"
   viewBox="0 0 129.3735 28.777822"
   version="1.1"
   id="svg1"
   xml:space="preserve"
   xmlns="http://www.w3.org/2000/svg"
   xmlns:svg="http://www.w3.org/2000/svg"><defs
     id="defs1" /><g
     id="layer1"
     transform="translate(-36.152422,-133.97473)"><g
       style="fill:#000000"
       id="g3"
       transform="matrix(0.18708867,0.18708867,-0.18708867,0.18708867,105.03941,77.204946)"><g
         id="SVGRepo_iconCarrier"> <g
   id="g1"> <path
   d="m 380.711,57.465 -8.808,-8.842 -89.742,95 -10.585,-10.625 92.357,-92.357 -7.75,-7.715 -92.938,92.932 -8.772,-8.778 92.926,-92.944 -8.539,-8.528 -92.938,92.932 -10.411,-10.41 95.936,-89.987 -8.052,-8.052 -88.418,68.853 c 0,0 -3.207,2.713 -4.311,3.828 -12.13,12.124 -17.347,28.594 -15.615,44.424 -3.719,61.666 -56.862,75.254 -64.774,83.166 -8.749,8.796 -143.77,143.805 -143.77,143.805 l 0.023,0.022 c -0.104,0.117 -0.221,0.141 -0.337,0.256 -8.272,8.273 -8.25,21.704 0.012,29.965 8.249,8.272 21.715,8.272 29.953,0.023 0.116,-0.128 0.174,-0.244 0.255,-0.337 l 0.023,0.022 c 0,0 133.359,-133.312 143.537,-143.502 9.179,-9.213 30.812,-64.303 87.257,-64.878 0.058,-0.023 0.209,-0.046 0.29,-0.046 13.28,0.372 26.677,-4.032 37.354,-13.361 0.755,-0.663 2.486,-2.452 2.486,-2.452 z"
   id="path1"
   style="fill:#333333" /> </g> </g></g></g></svg>
