<?xml version="1.0" encoding="UTF-8" standalone="no"?>
<!-- Created with Inkscape (http://www.inkscape.org/) -->

<svg
   width="180.79633mm"
   height="30.498075mm"
   viewBox="0 0 180.79633 30.498075"
   version="1.1"
   id="svg1"
   xml:space="preserve"
   xmlns="http://www.w3.org/2000/svg"
   xmlns:svg="http://www.w3.org/2000/svg"><defs
     id="defs1" /><g
     id="layer1"
     transform="translate(-14.641425,-133.18223)"><g
       style="fill:#000000"
       id="g1"
       transform="matrix(0.18708867,0.18708867,-0.18708867,0.18708867,106.43592,44.180766)"><g
         id="SVGRepo_bgCarrier"
         stroke-width="0" /><g
         id="SVGRepo_tracerCarrier"
         stroke-linecap="round"
         stroke-linejoin="round" /><g
         id="SVGRepo_iconCarrier"> <path
   style="fill:#333333"
   d="m 12.912,462.806 c -11.255,11.254 -11.253,29.499 0,40.753 11.255,11.254 29.499,11.254 40.753,0 L 168.452,388.771 127.7,348.019 Z"
   id="path1" /> <path
   style="fill:#4d4d4d"
   d="M 127.702,348.019 12.912,462.806 c -11.254,11.254 -11.252,29.5 0,40.753 L 148.077,368.394 Z"
   id="path2" /> <path
   style="fill:#666666"
   d="m 475.72,0 c 38.997,38.996 48.038,114.973 -6.686,169.698 l -283.011,283.01 -81.507,-81.505 z"
   id="path3" /> <path
   style="fill:#4d4d4d"
   d="m 186.022,452.708 283.01,-283.01 c 35.32,-35.321 44.071,-79.492 35.356,-116.862 l -359.119,359.12 z"
   id="path4" /> </g></g></g></svg>
