<?xml version="1.0" encoding="UTF-8" standalone="no"?>
<!-- Created with Inkscape (http://www.inkscape.org/) -->

<svg
   width="182.47226mm"
   height="35.909985mm"
   viewBox="0 0 182.47226 35.909985"
   version="1.1"
   id="svg1"
   xml:space="preserve"
   xmlns="http://www.w3.org/2000/svg"
   xmlns:svg="http://www.w3.org/2000/svg"><defs
     id="defs1" /><g
     id="layer1"
     transform="translate(-13.803449,-110.6325)"><g
       style="fill:#000000"
       id="g3"
       transform="matrix(0.18708867,0.18708867,-0.18708867,0.18708867,105.03986,32.798195)"><g
         id="SVGRepo_bgCarrier"
         stroke-width="0" /><g
         id="SVGRepo_tracerCarrier"
         stroke-linecap="round"
         stroke-linejoin="round" /><g
         id="SVGRepo_iconCarrier"> <g
   id="g2"> <path
   style="fill:#666666"
   d="m 511.934,43.915 c -0.68,11.814 -6.383,22.811 -15.654,30.168 l -75.309,59.781 -21.42,-21.42 -21.409,-21.42 59.77,-75.309 c 7.356,-9.271 18.354,-14.974 30.168,-15.644 11.803,-0.691 23.387,3.725 31.748,12.096 8.369,8.361 12.775,19.945 12.106,31.748 z"
   id="path1" /> <path
   style="fill:#666666"
   d="M 133.861,420.973 74.08,496.282 c -7.356,9.271 -18.343,14.974 -30.157,15.654 -0.795,0.042 -1.591,0.063 -2.375,0.063 -10.977,0 -21.577,-4.363 -29.383,-12.17 C 3.794,491.468 -0.611,479.885 0.069,468.071 0.739,456.268 6.442,445.27 15.713,437.914 l 75.309,-59.77 21.42,21.409 z"
   id="path2" /> </g> <g
   id="g4"> <path
   style="fill:#4d4d4d"
   d="m 112.441,399.554 21.42,21.42 -59.781,75.308 c -7.356,9.271 -18.343,14.974 -30.157,15.654 -0.795,0.042 -1.591,0.063 -2.375,0.063 -10.977,0 -21.577,-4.363 -29.383,-12.17 z"
   id="path3" /> <path
   style="fill:#4d4d4d"
   d="m 511.934,43.915 c -0.68,11.814 -6.383,22.811 -15.654,30.168 l -75.309,59.781 -21.42,-21.42 100.276,-100.276 c 8.37,8.36 12.776,19.944 12.107,31.747 z"
   id="path4" /> </g> <path
   style="fill:#4d4d4d"
   d="M 421.755,186.215 186.212,421.758 c -12.818,12.818 -29.864,19.871 -47.988,19.871 -18.124,0 -35.169,-7.053 -47.988,-19.871 C 77.418,408.94 70.365,391.894 70.365,373.77 c 0,-18.124 7.053,-35.169 19.871,-47.977 L 332.1,83.929 c 11.134,-11.134 25.93,-17.266 41.667,-17.266 15.737,0 30.544,6.132 41.667,17.266 l 6.32,6.31 c 26.454,26.464 26.454,69.512 10e-4,95.976 z"
   id="path5" /> <path
   style="fill:#333333"
   d="M 421.755,186.215 186.212,421.758 c -12.818,12.818 -29.864,19.871 -47.988,19.871 -18.124,0 -35.169,-7.053 -47.988,-19.871 L 421.755,90.239 c 26.453,26.464 26.453,69.512 0,95.976 z"
   id="path6" /> </g></g></g></svg>
