<?xml version="1.0" encoding="UTF-8" standalone="no"?>
<!-- Created with Inkscape (http://www.inkscape.org/) -->

<svg
   width="166.24043mm"
   height="45.812775mm"
   viewBox="0 0 166.24043 45.812775"
   version="1.1"
   id="svg1"
   xml:space="preserve"
   xmlns="http://www.w3.org/2000/svg"
   xmlns:svg="http://www.w3.org/2000/svg"><defs
     id="defs1" /><g
     id="layer1"
     transform="translate(-14.223853,-125.52537)"><g
       style="fill:#000000"
       id="g3"
       transform="matrix(0.18708867,0.18708867,-0.18708867,0.18708867,105.0395,52.641794)"><g
         id="SVGRepo_bgCarrier"
         stroke-width="0" /><g
         id="SVGRepo_tracerCarrier"
         stroke-linecap="round"
         stroke-linejoin="round" /><g
         id="SVGRepo_iconCarrier"> <path
   style="fill:#333333"
   d="m 191.957,328.372 c -2.131,0 -4.261,-0.813 -5.888,-2.438 -3.253,-3.253 -3.253,-8.524 0,-11.776 L 311.752,188.474 c 3.252,-3.251 8.524,-3.251 11.776,0 3.252,3.253 3.252,8.524 0,11.776 L 197.846,325.932 c -1.626,1.626 -3.757,2.44 -5.889,2.44 z"
   id="path1" /> <path
   style="fill:#333333"
   d="M 131.847,427.575 193.51,365.911 146.089,318.489 7.366,457.213 c -9.821,9.821 -9.821,25.745 0,35.566 l 11.855,11.856 c 9.821,9.82 25.745,9.821 35.566,0 l 58.51,-58.509"
   id="path2" /> <path
   d="m 168.414,296.164 c 4.942,-4.944 12.956,-4.944 17.9,-10e-4 l 29.521,29.526 c 4.944,4.941 4.944,12.955 0,17.898 l -22.326,22.325 -47.421,-47.422 z"
   id="path3"
   style="fill:#666666" /> <path
   style="opacity:0.15;fill:#333333;enable-background:new"
   d="M 19.012,470.561 161.01,328.562 183.863,305.71 c 2.297,-2.298 5.244,-3.542 8.249,-3.753 l -5.795,-5.797 c -4.944,-4.943 -12.959,-4.943 -17.9,10e-4 L 146.091,318.486 7.366,457.213 c -9.821,9.821 -9.821,25.745 0,35.566 l 6.267,6.269 C 9.53,489.63 11.309,478.264 19.012,470.561 Z"
   id="path4" /> <path
   d="m 295.868,172.588 v 0.002 c -12.026,12.023 -12.026,31.518 0,43.543 12.024,12.024 31.518,12.024 43.542,0 v -0.001 z"
   id="path5"
   style="fill:#666666" /> <path
   style="fill:#808080"
   d="M 507.201,104.053 407.949,4.801 c -6.399,-6.402 -16.781,-6.402 -23.183,0 l -26.516,26.517 -63.717,63.721 -26.52,26.517 c -6.399,6.4 -6.399,16.78 0,23.183 l 99.253,99.249 c 6.402,6.403 16.781,6.403 23.183,0 l 26.516,-26.516 63.722,-63.72 26.516,-26.517 c 6.397,-6.402 6.397,-16.783 -0.002,-23.182 z"
   id="path6" /> <path
   style="opacity:0.15;fill:#4d4d4d;enable-background:new"
   d="m 307.832,184.553 -11.963,-11.964 v 0.002 c -12.026,12.023 -12.026,31.518 0,43.543 2.152,2.152 4.543,3.909 7.087,5.291 -6.667,-11.707 -5.045,-26.846 4.876,-36.872 z"
   id="path7" /> <g
   style="opacity:0.15"
   id="g8"> <path
   style="fill:#a5a4a4"
   d="m 407.949,4.801 c -6.399,-6.402 -16.781,-6.402 -23.183,0 l -26.516,26.517 -63.717,63.721 -26.52,26.517 c -6.399,6.4 -6.399,16.78 0,23.183 l 10.994,10.992 c 0.05,-0.063 0.095,-0.129 0.145,-0.193 -5.431,-6.44 -5.125,-16.076 0.941,-22.14 l 26.518,-26.517 63.72,-63.721 26.518,-26.517 c 5.865,-5.866 15.067,-6.339 21.491,-1.453 z"
   id="path8" /> </g> <g
   id="g11"> <path
   style="fill:#ebeded"
   d="m 315.934,143.178 c -2.132,0 -4.263,-0.813 -5.889,-2.438 -3.252,-3.253 -3.252,-8.524 0,-11.777 l 85.003,-85.004 c 3.252,-3.251 8.523,-3.251 11.775,0 3.253,3.253 3.253,8.524 0,11.776 l -85.003,85.004 c -1.625,1.625 -3.755,2.439 -5.886,2.439 z"
   id="path9" /> <path
   style="fill:#ebeded"
   d="m 346.542,173.786 c -2.131,0 -4.261,-0.813 -5.888,-2.438 -3.253,-3.253 -3.253,-8.524 0,-11.776 l 85.005,-85.004 c 3.252,-3.251 8.524,-3.251 11.774,0 3.253,3.253 3.253,8.524 0,11.776 l -85.004,85.004 c -1.623,1.626 -3.755,2.438 -5.887,2.438 z"
   id="path10" /> <path
   style="fill:#ebeded"
   d="m 377.151,204.395 c -2.132,0 -4.263,-0.813 -5.889,-2.438 -3.252,-3.253 -3.252,-8.524 0,-11.776 l 85.004,-85.003 c 3.252,-3.251 8.525,-3.251 11.775,0 3.253,3.253 3.253,8.524 0,11.776 l -85.004,85.003 c -1.625,1.625 -3.756,2.438 -5.886,2.438 z"
   id="path11" /> </g> <path
   style="fill:#1a1a1a"
   d="m 35.432,484.331 c -2.131,0 -4.261,-0.813 -5.888,-2.438 -3.252,-3.253 -3.252,-8.524 0,-11.776 L 143.506,356.154 c 3.252,-3.251 8.524,-3.251 11.775,0 3.252,3.253 3.252,8.524 0,11.776 L 41.321,481.893 c -1.626,1.626 -3.757,2.438 -5.889,2.438 z"
   id="path12" /> </g></g></g></svg>
