<?xml version="1.0" encoding="UTF-8" standalone="no"?>
<!-- Created with Inkscape (http://www.inkscape.org/) -->

<svg
   width="70.115318mm"
   height="14.506616mm"
   viewBox="0 0 70.115318 14.506616"
   version="1.1"
   id="svg1"
   xml:space="preserve"
   xmlns="http://www.w3.org/2000/svg"
   xmlns:svg="http://www.w3.org/2000/svg"><defs
     id="defs1" /><g
     id="layer1"
     transform="translate(-69.981926,-121.33419)"><g
       style="fill:#000000"
       id="g3"
       transform="matrix(0,1.2088849,-1.2088849,0,140.09725,93.529838)"><g
         id="SVGRepo_iconCarrier"> <g
   id="g5"> <path
   style="fill:#999999"
   d="m 29,31 c -0.552,0 -1,-0.447 -1,-1 v -3 c 0,-0.553 0.448,-1 1,-1 0.552,0 1,0.447 1,1 v 3 c 0,0.552 -0.448,1 -1,1 z"
   id="path1" /> <path
   style="fill:#333333"
   d="m 29,58 v 0 c -1.65,0 -3,-1.35 -3,-3 V 33 c 0,-1.65 1.35,-3 3,-3 v 0 c 1.65,0 3,1.35 3,3 v 22 c 0,1.65 -1.35,3 -3,3 z"
   id="path2" /> <path
   style="fill:#666666"
   d="m 29,36 v 0 c -0.55,0 -1,-0.45 -1,-1 v 0 c 0,-0.55 0.45,-1 1,-1 v 0 c 0.55,0 1,0.45 1,1 v 0 c 0,0.55 -0.45,1 -1,1 z"
   id="path3" /> <path
   style="fill:#666666"
   d="m 29,40 v 0 c -0.55,0 -1,-0.45 -1,-1 v 0 c 0,-0.55 0.45,-1 1,-1 v 0 c 0.55,0 1,0.45 1,1 v 0 c 0,0.55 -0.45,1 -1,1 z"
   id="path4" /> <path
   style="fill:#999999"
   d="m 29,27 v 0 c -3.3,0 -6,-2.7 -6,-6 V 6 c 0,-3.3 2.7,-6 6,-6 v 0 c 3.3,0 6,2.7 6,6 v 15 c 0,3.3 -2.7,6 -6,6 z"
   id="path5" /> </g> </g></g></g></svg>
