<?xml version="1.0" encoding="UTF-8" standalone="no"?>
<!-- Created with Inkscape (http://www.inkscape.org/) -->

<svg
   width="68.346046mm"
   height="20.656946mm"
   viewBox="0 0 68.346046 20.656946"
   version="1.1"
   id="svg1"
   xml:space="preserve"
   xmlns="http://www.w3.org/2000/svg"
   xmlns:svg="http://www.w3.org/2000/svg"><defs
     id="defs1" /><g
     id="layer1"
     transform="translate(-83.051414,-126.07551)"><g
       style="fill:#000000"
       id="g2"
       transform="matrix(-0.29978203,0.32147687,-0.32147687,-0.29978203,156.93526,134.96544)"><g
         id="SVGRepo_bgCarrier"
         stroke-width="0" /><g
         id="SVGRepo_tracerCarrier"
         stroke-linecap="round"
         stroke-linejoin="round" /><g
         id="SVGRepo_iconCarrier"><path
           d="M 64.52,50.91 C 64.26,41.46 64.15,33.07 58.25,23.97 48.75,9.32 22.97,-2.35 13.03,5.16 2.01,13.49 8.8,39.24 19.57,50.64 34.25,66.2 46.7,60.17 53.49,64.02 c 5.84,3.31 18.2,20.38 26.28,29.74 8.08,9.36 22.17,25.12 24.99,28.07 2.82,2.95 6.94,2.65 8.07,2.05 1.61,-0.84 4.72,-3.45 4.34,-4.47 C 116.79,118.38 71.82,66.59 71.82,66.59 L 64.9,57.36 c -0.01,-0.01 -0.25,-1.71 -0.38,-6.45 z"
           fill="#616161"
           id="path1"
           style="fill:#333333" /><path
           d="m 14.5,7.56 c -8.95,7.36 -3.08,28.02 3.79,36.53 13.46,16.66 25.97,11.21 33.53,14.29 7.56,3.08 8.97,6.54 18.33,16.92 9.36,10.38 36.29,46.35 43.39,47.97 0.9,0.21 3.88,-2.93 5.42,-4.85 1.54,-1.92 2.97,-4.53 1.82,-6.33 C 119.63,110.3 67.84,57.36 65.15,54.67 62.46,51.98 62.2,46.72 61.95,44.16 61.69,41.6 60.8,27.24 49.77,18.4 38.74,9.56 22.45,1.03 14.5,7.56 Z"
           fill="#a5a4a4"
           id="path2"
           style="fill:#666666" /><path
           d="m 53.72,29.36 c 0,0 1.23,14.27 -11.43,12.47 -13.22,-1.87 -19.28,-19.75 -22.02,-25.7 -2.58,-5.61 -7.84,-4.81 -8.03,2.27 -0.22,8.27 5.78,26.76 21.93,33.17 15.2,6.03 24.94,0.76 24.66,-8.22 -0.3,-9.16 -5.11,-13.99 -5.11,-13.99 z"
           fill="#e0e0e0"
           id="path3"
           style="fill:#808080" /><path
           d="m 37.84,44.64 c 8.69,3.04 14.46,-0.57 15.02,5.01 0.39,3.85 -6.61,6.71 -19.09,1.89 -12.48,-4.82 -18.71,-18.9 -19.65,-21.92 -0.94,-3.02 -1.7,-7.47 0.09,-8.22 1.79,-0.75 3.69,2.46 5.95,6.8 2.26,4.34 6.63,12.57 17.68,16.44 z"
           fill="#ffffff"
           id="path4"
           style="fill:#e6e6e6" /><path
           d="m 105.55,111.81 c -1.45,1.09 4.63,8.5 7.56,8.98 2.93,0.47 7.22,-5.29 5.39,-6.14 -1.23,-0.57 -1.98,1.13 -5.39,0.38 -3.4,-0.76 -5.67,-4.63 -7.56,-3.22 z"
           fill="#ffffff"
           id="path5"
           style="fill:#e6e6e6" /></g></g></g></svg>
