<?xml version="1.0" encoding="utf-8"?>
<!-- Uploaded to: SVG Repo, www.svgrepo.com, Generator: SVG Repo Mixer Tools -->
<svg width="800px" height="800px" viewBox="0 0 1024 1024" class="icon"  version="1.1" xmlns="http://www.w3.org/2000/svg"><path d="M960 443.733333c0 10.666667-6.4 19.2-14.933333 23.466667-14.933333 4.266667-36.266667 2.133333-51.2-4.266667-23.466667-8.533333-44.8-21.333333-70.4-17.066666-19.2 4.266667-34.133333 17.066667-53.333334 19.2-23.466667 2.133333-42.666667 4.266667-61.866666-8.533334-34.133333-21.333333-76.8-36.266667-113.066667-19.2-12.8 6.4-21.333333 14.933333-34.133333 21.333334-17.066667 8.533333-38.4 10.666667-57.6 6.4-38.4-10.666667-78.933333-42.666667-106.666667-42.666667-27.733333 0-46.933333 19.2-70.4 32-34.133333 19.2-76.8 14.933333-113.066667 0-25.6-12.8-40.533333-32-64-32-27.733333 0-49.066667 29.866667-64 40.533333-8.533333 6.4-21.333333 0-21.333333-10.666666V211.2c0-8.533333 2.133333-19.2 8.533333-25.6C85.333333 168.533333 110.933333 147.2 134.4 149.333333c27.733333 2.133333 49.066667 12.8 74.666667 25.6 36.266667 17.066667 76.8 27.733333 108.8 8.533334 23.466667-12.8 49.066667-27.733333 76.8-32 38.4-4.266667 68.266667 34.133333 106.666666 44.8 19.2 4.266667 40.533333 2.133333 57.6-6.4 10.666667-6.4 21.333333-14.933333 34.133334-21.333334 36.266667-17.066667 78.933333-2.133333 113.066666 19.2 21.333333 8.533333 40.533333 4.266667 64 2.133334 19.2-2.133333 34.133333-14.933333 53.333334-19.2 23.466667-4.266667 46.933333 8.533333 70.4 17.066666 14.933333 6.4 36.266667 8.533333 51.2 4.266667 6.4-2.133333 14.933333 4.266667 14.933333 12.8v238.933333z" fill="#D84315" /><path d="M960 849.066667c0 10.666667-6.4 19.2-14.933333 23.466666-14.933333 4.266667-36.266667 2.133333-51.2-4.266666-23.466667-8.533333-44.8-21.333333-70.4-17.066667-19.2 4.266667-34.133333 17.066667-53.333334 19.2-23.466667 2.133333-42.666667 4.266667-61.866666-8.533333-34.133333-21.333333-76.8-36.266667-113.066667-19.2-12.8 6.4-21.333333 14.933333-34.133333 21.333333-17.066667 8.533333-38.4 10.666667-57.6 6.4-38.4-10.666667-78.933333-42.666667-106.666667-42.666667-27.733333 0-46.933333 19.2-70.4 34.133334-34.133333 19.2-76.8 14.933333-113.066667 0-25.6-12.8-40.533333-32-64-32-27.733333 0-49.066667 29.866667-64 40.533333-8.533333 6.4-21.333333 0-21.333333-10.666667V612.266667c0-8.533333 2.133333-17.066667 8.533333-25.6 14.933333-19.2 38.4-34.133333 64-32 27.733333 2.133333 49.066667 8.533333 74.666667 21.333333 36.266667 17.066667 76.8 27.733333 108.8 8.533333 23.466667-12.8 49.066667-23.466667 76.8-27.733333 38.4-4.266667 68.266667 29.866667 106.666667 40.533333 19.2 6.4 40.533333 2.133333 57.6-6.4 10.666667-6.4 21.333333-14.933333 34.133333-21.333333 36.266667-17.066667 78.933333-2.133333 113.066667 19.2 19.2 12.8 38.4 8.533333 61.866666 6.4 19.2-2.133333 34.133333-14.933333 53.333334-19.2 23.466667-4.266667 46.933333 8.533333 70.4 17.066667 14.933333 6.4 36.266667 8.533333 51.2 4.266666 8.533333-2.133333 17.066667 4.266667 17.066666 12.8L960 849.066667z" fill="#FF5722" /><path d="M945.066667 396.8c-8.533333 2.133333-19.2 2.133333-27.733334 2.133333s-19.2-4.266667-29.866666-8.533333c-6.4-4.266667-14.933333-6.4-23.466667-10.666667-14.933333-6.4-29.866667-10.666667-42.666667-8.533333-4.266667 0-8.533333 2.133333-12.8 4.266667-6.4 2.133333-10.666667 4.266667-17.066666 6.4-14.933333 4.266667-29.866667 8.533333-46.933334 8.533333-8.533333 0-14.933333-2.133333-25.6-4.266667-8.533333-2.133333-17.066667-6.4-21.333333-10.666666-12.8-8.533333-21.333333-12.8-32-17.066667-23.466667-8.533333-49.066667-10.666667-70.4 0l-19.2 10.666667-8.533333 6.4-4.266667 2.133333h-4.266667l-4.266666 4.266667c-19.2 8.533333-38.4 6.4-57.6 0-17.066667-6.4-29.866667-17.066667-40.533334-25.6-12.8-8.533333-23.466667-14.933333-36.266666-19.2-12.8-4.266667-25.6-4.266667-36.266667 0-12.8 4.266667-23.466667 10.666667-34.133333 19.2l-8.533334 6.4-8.533333 6.4-8.533333 6.4-2.133334 2.133333-2.133333 2.133333c-2.133333 0-2.133333 2.133333-4.266667 2.133334-14.933333 6.4-29.866667 6.4-42.666666 6.4-12.8 0-27.733333-4.266667-38.4-8.533334-12.8-4.266667-21.333333-10.666667-32-17.066666-19.2-12.8-36.266667-21.333333-55.466667-25.6-17.066667-4.266667-34.133333-2.133333-44.8 2.133333-12.8 4.266667-21.333333 8.533333-27.733333 12.8-8.533333 4.266667-10.666667 6.4-10.666667 6.4s2.133333-2.133333 8.533333-6.4c4.266667-4.266667 12.8-10.666667 25.6-14.933333 12.8-4.266667 29.866667-8.533333 46.933334-6.4 19.2 2.133333 38.4 10.666667 57.6 21.333333 10.666667 4.266667 21.333333 10.666667 32 14.933333 10.666667 4.266667 23.466667 6.4 34.133333 6.4 12.8 0 25.6-2.133333 34.133333-6.4 2.133333 0 2.133333-2.133333 4.266667-2.133333 0 0 2.133333-2.133333 2.133333 0l2.133334-2.133333 8.533333-6.4 8.533333-6.4 8.533334-6.4c10.666667-8.533333 23.466667-19.2 40.533333-23.466667 14.933333-6.4 34.133333-6.4 51.2-2.133333 34.133333 6.4 59.733333 29.866667 81.066667 38.4 10.666667 4.266667 21.333333 2.133333 29.866666-2.133334 12.8-8.533333 23.466667-17.066667 36.266667-25.6 32-17.066667 70.4-17.066667 100.266667-8.533333 14.933333 4.266667 32 12.8 42.666666 19.2 6.4 2.133333 10.666667 4.266667 14.933334 6.4 2.133333 0 8.533333 2.133333 12.8 0 8.533333 0 19.2-2.133333 27.733333-6.4 4.266667-2.133333 10.666667-4.266667 14.933333-8.533333 6.4-2.133333 12.8-6.4 21.333334-8.533334 14.933333-4.266667 29.866667-4.266667 42.666666-2.133333 12.8 2.133333 23.466667 6.4 34.133334 8.533333 8.533333 4.266667 17.066667 6.4 25.6 8.533334 4.266667 2.133333 8.533333 2.133333 12.8 2.133333h6.4c4.266667-2.133333 8.533333-2.133333 12.8-4.266667 2.133333 0 10.666667-6.4 19.2-10.666666v72.533333h-2.133334c-8.533333-2.133333-12.8 0-17.066666 0zM89.6 224c-10.666667 2.133333-19.2 6.4-25.6 10.666667v83.2c12.8-10.666667 25.6-23.466667 27.733333-25.6 4.266667-2.133333 10.666667-6.4 17.066667-10.666667 8.533333-4.266667 19.2-6.4 32-4.266667 12.8 2.133333 27.733333 8.533333 49.066667 19.2 4.266667 2.133333 10.666667 4.266667 14.933333 8.533334l4.266667 2.133333 4.266666 2.133333h2.133334c2.133333 0 6.4 2.133333 10.666666 4.266667 14.933333 4.266667 29.866667 8.533333 44.8 8.533333 14.933333 0 32-2.133333 49.066667-10.666666 17.066667-8.533333 27.733333-19.2 38.4-27.733334s19.2-14.933333 29.866667-19.2c2.133333 0 4.266667-2.133333 8.533333-2.133333h8.533333c4.266667 0 10.666667 0 14.933334 2.133333 10.666667 2.133333 23.466667 8.533333 36.266666 14.933334 12.8 6.4 25.6 17.066667 42.666667 23.466666 17.066667 6.4 38.4 6.4 55.466667-2.133333s25.6-19.2 38.4-25.6c21.333333-12.8 49.066667-12.8 74.666666-6.4 23.466667 6.4 49.066667 23.466667 78.933334 25.6 14.933333 0 27.733333-2.133333 40.533333-8.533333 12.8-6.4 21.333333-10.666667 32-12.8 19.2-6.4 40.533333 0 57.6 4.266666 17.066667 6.4 32 12.8 46.933333 14.933334 6.4 0 12.8 0 19.2-2.133334 4.266667-2.133333 8.533333-4.266667 12.8-4.266666 6.4-2.133333 10.666667-4.266667 10.666667-4.266667s-4.266667 0-10.666667 2.133333c-6.4 0-17.066667 4.266667-29.866666 2.133334-12.8 0-25.6-8.533333-42.666667-17.066667-17.066667-6.4-38.4-14.933333-64-8.533333-12.8 2.133333-23.466667 8.533333-34.133333 12.8-10.666667 4.266667-21.333333 6.4-32 4.266666-10.666667-2.133333-23.466667-6.4-34.133334-12.8s-25.6-12.8-38.4-17.066666c-27.733333-8.533333-64-12.8-93.866666 2.133333-14.933333 6.4-27.733333 19.2-36.266667 21.333333-10.666667 4.266667-21.333333 4.266667-32-2.133333-21.333333-10.666667-44.8-34.133333-81.066667-44.8-8.533333-2.133333-17.066667-4.266667-27.733333-4.266667h-14.933333c-4.266667 0-8.533333 2.133333-12.8 2.133334-17.066667 6.4-32 14.933333-44.8 23.466666-12.8 8.533333-21.333333 17.066667-29.866667 19.2-8.533333 4.266667-19.2 4.266667-27.733333 4.266667-10.666667 0-19.2-4.266667-27.733334-6.4-2.133333 0-4.266667-2.133333-6.4-2.133333h-2.133333c2.133333 2.133333 0 0 2.133333 0l-14.933333-4.266667c-4.266667-2.133333-10.666667-6.4-14.933333-8.533333-17.066667-10.666667-40.533333-23.466667-64-27.733334-23.466667-6.4-46.933333-2.133333-61.866667 4.266667z m868.266667 576s2.133333 0 0 0l2.133333-72.533333c-8.533333 6.4-17.066667 10.666667-19.2 10.666666-4.266667 0-8.533333 2.133333-12.8 4.266667h-6.4c-4.266667 0-8.533333 0-12.8-2.133333-8.533333-2.133333-14.933333-6.4-25.6-8.533334-8.533333-4.266667-21.333333-6.4-34.133333-8.533333-12.8-2.133333-27.733333-2.133333-42.666667 2.133333-6.4 2.133333-14.933333 4.266667-21.333333 8.533334-4.266667 2.133333-10.666667 4.266667-14.933334 8.533333-8.533333 4.266667-17.066667 6.4-27.733333 6.4h-12.8c-4.266667 0-8.533333-2.133333-14.933333-6.4-10.666667-6.4-27.733333-14.933333-42.666667-19.2-29.866667-8.533333-68.266667-10.666667-100.266667 8.533333-12.8 8.533333-23.466667 17.066667-36.266666 25.6-8.533333 4.266667-21.333333 6.4-29.866667 2.133334-23.466667-8.533333-49.066667-32-81.066667-38.4-17.066667-4.266667-34.133333-2.133333-51.2 2.133333-14.933333 6.4-27.733333 14.933333-40.533333 23.466667l-8.533333 6.4-8.533334 6.4-8.533333 6.4-2.133333 2.133333h-2.133334c-2.133333 0-2.133333 2.133333-4.266666 2.133333-10.666667 4.266667-23.466667 6.4-34.133334 6.4-12.8 0-23.466667-2.133333-34.133333-6.4-10.666667-4.266667-21.333333-8.533333-32-14.933333-19.2-10.666667-40.533333-19.2-57.6-21.333333-19.2-2.133333-36.266667 0-46.933333 6.4-12.8 4.266667-21.333333 10.666667-25.6 14.933333-2.133333 6.4-4.266667 8.533333-4.266667 8.533333s2.133333-2.133333 8.533333-6.4c6.4-4.266667 14.933333-8.533333 27.733334-12.8 12.8-4.266667 27.733333-6.4 44.8-2.133333 17.066667 4.266667 36.266667 12.8 55.466666 25.6 10.666667 4.266667 19.2 12.8 32 17.066667 12.8 4.266667 25.6 8.533333 38.4 8.533333 12.8 0 27.733333 0 42.666667-6.4 2.133333 0 4.266667-2.133333 4.266667-2.133333 2.133333 0 0 0 2.133333-2.133334l2.133333-2.133333 8.533334-6.4 10.666666-6.4 8.533334-6.4c10.666667-8.533333 21.333333-14.933333 34.133333-19.2 10.666667-4.266667 25.6-2.133333 36.266667 0 12.8 4.266667 23.466667 10.666667 36.266666 19.2 12.8 8.533333 23.466667 17.066667 40.533334 25.6 17.066667 8.533333 38.4 8.533333 57.6 0l4.266666-2.133333h4.266667l4.266667-2.133334 8.533333-6.4 17.066667-10.666666c21.333333-10.666667 46.933333-8.533333 70.4 0 12.8 4.266667 19.2 8.533333 32 17.066666 6.4 4.266667 12.8 8.533333 21.333333 10.666667 10.666667 4.266667 17.066667 4.266667 25.6 4.266667 17.066667 0 32-2.133333 46.933333-8.533334 6.4-2.133333 10.666667-4.266667 17.066667-6.4 4.266667-2.133333 8.533333-2.133333 12.8-4.266666 14.933333-2.133333 27.733333 2.133333 42.666667 8.533333 8.533333 4.266667 14.933333 6.4 23.466666 10.666667 10.666667 4.266667 19.2 6.4 29.866667 8.533333 8.533333 2.133333 19.2 0 27.733333-2.133333 6.4-2.133333 10.666667-4.266667 14.933334-4.266667z m-868.266667-170.666667c-10.666667 2.133333-19.2 6.4-25.6 10.666667v83.2c12.8-10.666667 25.6-23.466667 27.733333-25.6 4.266667-2.133333 10.666667-6.4 17.066667-10.666667 8.533333-4.266667 19.2-6.4 32-4.266666 12.8 2.133333 27.733333 8.533333 49.066667 19.2 4.266667 2.133333 10.666667 4.266667 14.933333 8.533333l4.266667 2.133333 4.266666 2.133334h2.133334c2.133333 0 6.4 2.133333 10.666666 4.266666 14.933333 4.266667 29.866667 8.533333 44.8 8.533334 14.933333 0 32-2.133333 49.066667-10.666667 17.066667-8.533333 27.733333-19.2 38.4-27.733333s19.2-14.933333 29.866667-19.2c2.133333 0 4.266667-2.133333 8.533333-2.133334h8.533333c4.266667 0 10.666667 0 14.933334 2.133334 10.666667 2.133333 23.466667 8.533333 36.266666 14.933333 12.8 6.4 25.6 17.066667 42.666667 23.466667 17.066667 6.4 38.4 6.4 55.466667-2.133334s25.6-19.2 38.4-25.6c21.333333-12.8 49.066667-12.8 74.666666-6.4 23.466667 6.4 49.066667 23.466667 78.933334 25.6 14.933333 0 27.733333-2.133333 40.533333-8.533333 12.8-6.4 21.333333-10.666667 32-12.8 19.2-6.4 40.533333 0 57.6 4.266667 17.066667 6.4 32 12.8 46.933333 14.933333 6.4 0 12.8 0 19.2-2.133333 4.266667-2.133333 8.533333-4.266667 12.8-4.266667 6.4-2.133333 10.666667-4.266667 10.666667-4.266667s-4.266667 0-10.666667 2.133334c-6.4 0-17.066667 4.266667-29.866666 2.133333-12.8 0-25.6-8.533333-42.666667-17.066667-17.066667-6.4-38.4-14.933333-64-8.533333-12.8 2.133333-23.466667 8.533333-34.133333 12.8-10.666667 4.266667-21.333333 6.4-32 4.266667-10.666667-2.133333-23.466667-6.4-34.133334-12.8s-25.6-12.8-38.4-17.066667c-27.733333-8.533333-64-12.8-93.866666 2.133333-14.933333 6.4-27.733333 19.2-36.266667 21.333334-10.666667 4.266667-21.333333 4.266667-32-2.133334-21.333333-10.666667-44.8-34.133333-81.066667-44.8-8.533333-2.133333-17.066667-4.266667-27.733333-4.266666h-14.933333c-4.266667 0-8.533333 2.133333-12.8 2.133333-17.066667 6.4-32 14.933333-44.8 23.466667-12.8 8.533333-21.333333 17.066667-29.866667 19.2-8.533333 4.266667-19.2 4.266667-27.733333 4.266666-10.666667 0-19.2-4.266667-27.733334-6.4-2.133333 0-4.266667-2.133333-6.4-2.133333h-2.133333c2.133333 2.133333 0 0 2.133333 0l-14.933333-4.266667c-4.266667-2.133333-10.666667-6.4-14.933333-8.533333-17.066667-10.666667-40.533333-23.466667-64-27.733333-23.466667-6.4-46.933333-2.133333-61.866667 4.266666z" fill="#FFF3E0" /></svg>