<?xml version="1.0" encoding="utf-8"?>
<!-- Uploaded to: SVG Repo, www.svgrepo.com, Generator: SVG Repo Mixer Tools -->
<svg width="800px" height="800px" viewBox="0 0 1024 1024" class="icon"  version="1.1" xmlns="http://www.w3.org/2000/svg"><path d="M782.933333 482.133333L541.866667 238.933333s113.066667 36.266667 234.666666-83.2l91.733334 91.733334c-121.6 121.6-85.333333 234.666667-85.333334 234.666666z" fill="#558B2F" /><path d="M791.466667 746.666667c42.666667-106.666667 23.466667-238.933333-55.466667-349.866667-6.4-49.066667 4.266667-110.933333 70.4-179.2-66.133333 66.133333-130.133333 78.933333-179.2 70.4C518.4 209.066667 384 189.866667 277.333333 232.533333L298.666667 149.333333s-106.666667 108.8-110.933334 142.933334C64 418.133333 83.2 640 234.666667 789.333333c149.333333 149.333333 373.333333 170.666667 497.066666 44.8C765.866667 832 874.666667 725.333333 874.666667 725.333333l-83.2 21.333334z" fill="#AED581" /><path d="M550.4 625.066667s-64-36.266667-40.533333-110.933334c-74.666667 23.466667-108.8-40.533333-110.933334-40.533333 6.4 6.4 78.933333 40.533333 166.4-44.8l29.866667 29.866667c-85.333333 87.466667-51.2 160-44.8 166.4z m-285.866667 14.933333c-4.266667-4.266667-40.533333-81.066667 29.866667-151.466667l-29.866667-29.866666c-68.266667 68.266667-145.066667 34.133333-151.466666 29.866666 0 0 42.666667 64 100.266666 49.066667-17.066667 59.733333 44.8 91.733333 51.2 102.4z m270.933334 270.933333c-4.266667-4.266667-40.533333-81.066667 29.866666-151.466666l-29.866666-29.866667c-68.266667 68.266667-145.066667 34.133333-151.466667 29.866667 0 0 42.666667 64 100.266667 49.066666-14.933333 61.866667 51.2 102.4 51.2 102.4zM234.666667 789.333333c14.933333 14.933333 32 29.866667 51.2 42.666667-19.2-19.2-21.333333-40.533333 23.466666-87.466667l-29.866666-29.866666c-42.666667 42.666667-66.133333 42.666667-87.466667 23.466666 10.666667 19.2 25.6 36.266667 42.666667 51.2z m640-64l-29.866667-29.866666c-85.333333 85.333333-166.4 55.466667-172.8 49.066666 0 2.133333 85.333333 98.133333 202.666667-19.2zM279.466667 352c-6.4-6.4-36.266667-85.333333 49.066666-172.8L298.666667 149.333333c-119.466667 119.466667-21.333333 202.666667-19.2 202.666667z m503.466666 130.133333c0 2.133333 2.133333 6.4 2.133334 8.533334-4.266667-40.533333 66.133333-134.4 125.866666-196.266667l-29.866666-29.866667c-14.933333 17.066667-61.866667 64-96 117.333334-14.933333 57.6-2.133333 100.266667-2.133334 100.266666zM541.866667 241.066667s42.666667 12.8 104.533333-4.266667c51.2-34.133333 98.133333-78.933333 115.2-93.866667l-29.866667-29.866666c-61.866667 61.866667-155.733333 130.133333-196.266666 125.866666 0 0 4.266667 0 6.4 2.133334z m241.066666 241.066666c-4.266667-4.266667-74.666667-136.533333 53.333334-264.533333l-29.866667-29.866667c-128 128-260.266667 55.466667-264.533333 53.333334 2.133333 0 70.4 102.4 185.6 57.6-44.8 113.066667 55.466667 181.333333 55.466666 183.466666z" fill="#7CB342" /></svg>