<?xml version="1.0" encoding="utf-8"?>
<!-- Uploaded to: SVG Repo, www.svgrepo.com, Generator: SVG Repo Mixer Tools -->
<svg width="800px" height="800px" viewBox="0 0 1024 1024" class="icon"  version="1.1" xmlns="http://www.w3.org/2000/svg"><path d="M221.866667 851.2c-6.4-2.133333-12.8-2.133333-17.066667 2.133333 0-8.533333-4.266667-14.933333-12.8-19.2-4.266667-2.133333-8.533333-2.133333-12.8-2.133333 0-4.266667 0-6.4-2.133333-10.666667-4.266667-10.666667-17.066667-14.933333-27.733334-10.666666 0 0-2.133333 2.133333-6.4 4.266666-4.266667 2.133333-8.533333 6.4-14.933333 10.666667-10.666667 10.666667-25.6 23.466667-36.266667 40.533333-10.666667 14.933333-19.2 34.133333-23.466666 46.933334-2.133333 6.4-4.266667 12.8-4.266667 17.066666v8.533334s0-2.133333 2.133333-6.4c2.133333-4.266667 4.266667-8.533333 8.533334-14.933334 6.4-10.666667 19.2-25.6 32-36.266666s29.866667-19.2 40.533333-25.6c4.266667-2.133333 6.4-2.133333 10.666667-4.266667-2.133333 2.133333-4.266667 6.4-6.4 10.666667-6.4 12.8-17.066667 29.866667-29.866667 44.8-10.666667 17.066667-23.466667 32-36.266667 40.533333-2.133333 2.133333-6.4 4.266667-8.533333 6.4-2.133333 2.133333-4.266667 2.133333-6.4 4.266667-4.266667 0-6.4 2.133333-6.4 2.133333s2.133333 0 6.4-2.133333c2.133333 0 4.266667 0 8.533333-2.133334 2.133333 0 6.4-2.133333 10.666667-4.266666 14.933333-6.4 32-17.066667 49.066667-29.866667 17.066667-12.8 32-25.6 42.666666-38.4l8.533334-8.533333c0 2.133333-2.133333 6.4-4.266667 8.533333-6.4 12.8-12.8 29.866667-23.466667 44.8-10.666667 19.2-23.466667 32-34.133333 40.533333-6.4 4.266667-10.666667 8.533333-14.933333 8.533334-4.266667 2.133333-6.4 4.266667-6.4 4.266666s2.133333 0 6.4-2.133333c4.266667 0 10.666667-2.133333 17.066666-6.4 14.933333-6.4 32-14.933333 46.933334-29.866667 14.933333-12.8 29.866667-27.733333 38.4-40.533333 4.266667-6.4 8.533333-10.666667 10.666666-14.933333 2.133333-4.266667 4.266667-6.4 4.266667-6.4 0-2.133333 2.133333-4.266667 2.133333-6.4 6.4-6.4 0-19.2-10.666666-23.466667z" fill="#A1887F" /><path d="M234.666667 874.666667c-21.333333 0-42.666667-8.533333-59.733334-25.6-34.133333-34.133333-34.133333-87.466667 0-121.6L405.333333 533.333333c34.133333-34.133333 134.4-115.2 166.4-81.066666 34.133333 34.133333-27.733333 113.066667-59.733333 145.066666L294.4 849.066667C277.333333 866.133333 256 874.666667 234.666667 874.666667z" fill="#DCEDC8" /><path d="M981.333333 42.666667L533.333333 533.333333l-106.666666-42.666666L832 42.666667z" fill="#33691E" /><path d="M938.666667 85.333333v128L554.666667 533.333333l-128-42.666666z" fill="#558B2F" /><path d="M682.666667 149.333333h128L597.333333 469.333333h-128z" fill="#689F38" /><path d="M853.333333 341.333333L554.666667 554.666667l-85.333334-64L853.333333 192z" fill="#7CB342" /><path d="M533.333333 277.333333h128l-128 213.333334-128 42.666666z" fill="#9CCC65" /><path d="M746.666667 469.333333v-149.333333L405.333333 533.333333c108.8 0 106.666667 64 106.666667 64l234.666667-128z" fill="#AED581" /></svg>