<?xml version="1.0" encoding="utf-8"?>
<!-- Uploaded to: SVG Repo, www.svgrepo.com, Generator: SVG Repo Mixer Tools -->
<svg width="800px" height="800px" viewBox="0 0 1024 1024" class="icon"  version="1.1" xmlns="http://www.w3.org/2000/svg"><path d="M392.533333 113.066667c6.4-4.266667 19.2-6.4 36.266667-6.4 125.866667 2.133333 512 132.266667 512 213.333333 0 91.733333-256 362.666667-341.333333 362.666667S345.6 155.733333 392.533333 113.066667z" fill="#FFA000" /><path d="M682.666667 433.066667c0 61.866667-21.333333 151.466667-53.333334 241.066666-12.8 4.266667-21.333333 8.533333-32 8.533334-8.533333 0-21.333333-6.4-32-19.2 29.866667-85.333333 53.333333-170.666667 51.2-228.266667 0-34.133333-4.266667-57.6-21.333333-64-12.8-4.266667-29.866667-8.533333-51.2-8.533333h-6.4c-29.866667 0-68.266667 4.266667-106.666667 10.666666-6.4-21.333333-12.8-42.666667-19.2-61.866666 44.8-6.4 87.466667-12.8 125.866667-12.8h6.4c32 0 55.466667 4.266667 74.666667 12.8 61.866667 25.6 64 96 64 121.6z m87.466666-38.4c0 17.066667 14.933333 32 32 32s32-14.933333 32-32-14.933333-32-32-32-32 14.933333-32 32z m-128-160c0 10.666667 8.533333 21.333333 21.333334 21.333333 10.666667 0 21.333333-8.533333 21.333333-21.333333s-8.533333-21.333333-21.333333-21.333334-21.333333 10.666667-21.333334 21.333334z m-196.266666-49.066667c0 10.666667 8.533333 21.333333 21.333333 21.333333 10.666667 0 21.333333-8.533333 21.333333-21.333333s-8.533333-21.333333-21.333333-21.333333-21.333333 10.666667-21.333333 21.333333zM791.466667 298.666667c0 10.666667 8.533333 21.333333 21.333333 21.333333s21.333333-8.533333 21.333333-21.333333-8.533333-21.333333-21.333333-21.333334-21.333333 10.666667-21.333333 21.333334zM704 512c0 10.666667 8.533333 21.333333 21.333333 21.333333 10.666667 0 21.333333-8.533333 21.333334-21.333333 0-10.666667-8.533333-21.333333-21.333334-21.333333-10.666667 0-21.333333 10.666667-21.333333 21.333333z" fill="#F57F17" /><path d="M85.333333 469.333333c19.2-49.066667 322.133333-130.133333 460.8-128 21.333333 0 38.4 2.133333 51.2 8.533334 17.066667 6.4 21.333333 29.866667 21.333334 64 2.133333 151.466667-130.133333 503.466667-192 503.466666-74.666667 0-364.8-390.4-341.333334-448z" fill="#FFC107" /><path d="M512 426.666667c12.8 0 21.333333 8.533333 21.333333 21.333333s-8.533333 21.333333-21.333333 21.333333-21.333333-8.533333-21.333333-21.333333 8.533333-21.333333 21.333333-21.333333z m-192 0c0 12.8 8.533333 21.333333 21.333333 21.333333s21.333333-8.533333 21.333334-21.333333-8.533333-21.333333-21.333334-21.333334-21.333333 8.533333-21.333333 21.333334z m-85.333333 128c0 12.8 8.533333 21.333333 21.333333 21.333333s21.333333-8.533333 21.333333-21.333333-8.533333-21.333333-21.333333-21.333334-21.333333 8.533333-21.333333 21.333334z m234.666666 10.666666c0 17.066667 14.933333 32 32 32s32-14.933333 32-32-14.933333-32-32-32-32 14.933333-32 32z m-194.133333 106.666667c0 17.066667 14.933333 32 32 32s32-14.933333 32-32-14.933333-32-32-32-32 14.933333-32 32z m151.466667 10.666667c0 10.666667 8.533333 21.333333 21.333333 21.333333 10.666667 0 21.333333-8.533333 21.333333-21.333333 0-10.666667-8.533333-21.333333-21.333333-21.333334-10.666667 0-21.333333 10.666667-21.333333 21.333334z m-21.333334 128c0 10.666667 8.533333 21.333333 21.333334 21.333333 10.666667 0 21.333333-8.533333 21.333333-21.333333 0-10.666667-8.533333-21.333333-21.333333-21.333334-10.666667 0-21.333333 10.666667-21.333334 21.333334z m-42.666666-266.666667c0 6.4 4.266667 10.666667 10.666666 10.666667s10.666667-4.266667 10.666667-10.666667-4.266667-10.666667-10.666667-10.666667-10.666667 4.266667-10.666666 10.666667z" fill="#F9A825" /></svg>