<?xml version="1.0" encoding="utf-8"?>
<!-- Uploaded to: SVG Repo, www.svgrepo.com, Generator: SVG Repo Mixer Tools -->
<svg width="800px" height="800px" viewBox="0 0 1024 1024" class="icon"  version="1.1" xmlns="http://www.w3.org/2000/svg"><path d="M782.336 153.664c-11.093333-0.768-20.501333 1.045333-25.408 1.834667-27.306667 1.493333-126.250667 15.658667-248.213333 133.973333-22.976 15.786667-98.474667 73.024-106.005334 147.221333l-0.384 3.925334c-1.813333 19.626667-5.610667 60.416-33.045333 72.341333-54.528 23.658667-105.557333 53.76-116.074667 61.312C192.853333 611.712 100.266667 702.997333 135.936 807.616 155.093333 863.786667 199.552 896 257.962667 896c38.528 0 73.728-14.058667 92.032-22.890667 39.232-8.149333 217.365333-53.098667 256.981333-203.904 2.56-5.12 5.397333-12.629333 8.896-21.909333 12.501333-33.301333 33.450667-89.024 74.730667-124.245333 3.84-3.264 15.061333-13.077333 30.08-26.218667 30.464-26.602667 76.629333-66.944 109.781333-95.317333l1.578667-1.514667c6.506667-6.293333 58.666667-63.872 62.997333-145.109333 11.008-205.909333-76.714667-98.688-112.704-101.226667z" fill="#FBC02D" /><path d="M283.776 618.773333s-127.808 78.144-95.829333 171.904c31.957333 93.802667 143.786667 31.296 143.786666 31.296s191.744-31.296 223.616-171.989333c0 0 29.333333-50.901333 18.645334-78.101333-5.376-13.781333-37.930667-5.589333-54.954667-14.122667-21.76-10.922667-55.509333-14.250667-107.456-1.514667-63.893333 15.637333-127.808 62.528-127.808 62.528zM521.365333 344.96s-137.024 91.349333-60.885333 167.488 152.234667 0 167.488-15.210667c15.210667-15.274667 137.045333-121.792 137.045333-121.792S810.666667 329.770667 810.666667 268.821333c0-60.864-76.117333-45.653333-76.117334-45.653333s-91.392 0-213.184 121.792z" fill="#D84315" /><path d="M574.698667 575.338667c-45.333333 55.253333-160.64 167.722667-382.229334 225.877333 36.693333 77.781333 139.221333 20.757333 139.221334 20.757333s191.744-31.296 223.616-171.989333c0.042667 0 26.773333-46.826667 19.392-74.645333zM798.250667 235.584c-0.149333 0.469333-0.426667 0.704-0.490667 1.258667-35.2 61.056-129.109333 188.757333-333.397333 278.826666l-0.042667 0.106667c74.858667 69.973333 148.650667-3.584 163.690667-18.538667 15.168-15.274667 137.002667-121.792 137.002666-121.792S810.666667 329.770667 810.666667 268.821333c0-15.573333-4.992-26.112-12.416-33.237333z" fill="#A52E0E" /></svg>