<?xml version="1.0" encoding="utf-8"?>
<!-- Uploaded to: SVG Repo, www.svgrepo.com, Generator: SVG Repo Mixer Tools -->
<svg width="800px" height="800px" viewBox="0 0 1024 1024" class="icon"  version="1.1" xmlns="http://www.w3.org/2000/svg"><path d="M890.261333 168.042667a19.776 19.776 0 0 0 0-27.818667 19.584 19.584 0 0 0-27.712 0 19.712 19.712 0 0 0 0.021334-27.797333 19.541333 19.541333 0 0 0-27.712 0c-47.018667 47.189333-194.112-27.626667-304.64 83.392-96.96 97.322667-290.837333 319.808-290.837334 319.808-69.226667 97.322667-90.602667 200.341333-20.416 270.741333 70.165333 70.464 172.778667 49.002667 269.696-20.522667 0 0 225.386667-190.805333 322.304-288.149333 115.413333-115.797333 32.490667-262.656 79.296-309.653333z" fill="#7CB342" /><path d="M670.933333 509.162667c-25.237333 0-91.392-24.554667-91.392-49.152s66.154667-49.173333 91.370667-49.173334c25.28 0 45.738667 21.994667 45.738667 49.173334 0 27.136-20.48 49.152-45.717334 49.152zM573.802667 606.677333c-25.237333 0-91.370667-24.597333-91.370667-49.173333s66.154667-49.173333 91.370667-49.173333c25.258667 0 45.717333 22.037333 45.717333 49.173333 0 27.157333-20.458667 49.173333-45.717333 49.173333zM477.077333 703.808c-25.258667 0-91.392-24.597333-91.392-49.152 0-24.554667 66.154667-49.194667 91.370667-49.194667s45.738667 22.037333 45.717333 49.194667c0.021333 27.136-20.48 49.152-45.696 49.152zM375.466667 763.52c-18.112 0-65.578667-17.642667-65.578667-35.242667s47.488-35.285333 65.578667-35.242666c18.090667-0.021333 32.768 15.786667 32.768 35.264-0.021333 19.434667-14.677333 35.221333-32.768 35.221333zM801.962667 306.026667c-14.528 0-52.650667-14.186667-52.650667-28.309334 0.021333-14.165333 38.122667-28.309333 52.650667-28.309333s26.304 12.650667 26.282666 28.288c0 15.616-11.754667 28.330667-26.282666 28.330667zM495.082667 332.608c0 25.365333 24.490667 91.797333 48.981333 91.797333 24.448 0 48.938667-66.410667 48.981333-91.797333-0.042667-25.301333-21.930667-45.866667-49.002666-45.866667-27.029333-0.021333-48.96 20.522667-48.96 45.866667zM397.952 430.144c0 25.344 24.490667 91.754667 48.981333 91.754667s48.981333-66.410667 49.002667-91.754667c-0.021333-25.365333-21.952-45.888-49.002667-45.866667-27.008 0-48.981333 20.501333-48.981333 45.866667zM301.205333 527.253333c-0.021333 25.344 24.490667 91.776 48.981334 91.776 24.448 0 48.96-66.410667 48.981333-91.733333-0.021333-25.344-21.952-45.888-49.002667-45.888-27.029333-0.021333-48.981333 20.522667-48.96 45.845333zM241.749333 629.290667c0 18.197333 17.578667 65.834667 35.114667 65.834666 17.536-0.042667 35.114667-47.637333 35.093333-65.813333 0-18.218667-15.68-32.938667-35.114666-32.938667-19.349333 0-35.093333 14.741333-35.093334 32.917334zM748.117333 403.541333c-20.501333 0-74.261333-19.989333-74.261333-39.914666 0-19.925333 53.781333-39.957333 74.261333-39.914667 20.48-0.021333 37.098667 17.898667 37.098667 39.957333 0 21.994667-16.597333 39.872-37.098667 39.872zM598.869333 251.434667c0 21.312 20.629333 77.248 41.216 77.248 20.608-0.042667 41.216-55.936 41.194667-77.226667 0-21.376-18.410667-38.677333-41.194667-38.677333-22.741333 0.021333-41.216 17.301333-41.216 38.656zM697.386667 199.573333c0 14.634667 14.08 52.864 28.202666 52.864 14.058667 0 28.16-38.229333 28.16-52.864 0-14.592-12.629333-26.410667-28.181333-26.410666s-28.202667 11.84-28.181333 26.410666z" fill="#F1F8E9" /><path d="M233.258667 799.872l463.146666-465.024c13.824-13.888 166.165333-194.624 166.165334-194.624s-180.032 152.917333-193.834667 166.869333L205.546667 772.053333l27.712 27.818667z" fill="#D4E157" /><path d="M506.496 203.562667c24.021333-23.957333 53.482667-47.509333 86.506667-59.754667 32.981333-13.098667 68.16-16.832 102.421333-17.472 34.368-0.938667 66.794667 5.546667 100.501333 2.218667-34.197333 5.056-66.432 3.072-100.16 5.589333-33.749333 1.813333-67.221333 8.725333-97.002666 22.997333A196.053333 196.053333 0 0 0 557.44 183.68c-12.608 10.346667-23.317333 22.869333-34.837333 35.690667-45.162667 50.944-88.896 103.509333-132.416 156.138666l-129.642667 155.989334c-23.765333 35.84-42.602667 74.730667-44.608 112.256-5.226667 98.048 20.394667 96.810667-10.56 128.192-12.864-14.762667-24.448-31.402667-32.64-50.410667a173.226667 173.226667 0 0 1-14.144-81.258667c4.074667-55.402667 30.165333-101.44 59.029333-140.266666l1.109334-1.536 0.490666-0.554667c46.101333-50.773333 93.546667-100.117333 141.141334-149.44 48.042667-48.917333 96.277333-97.578667 146.133333-144.917333z" fill="#558B2F" /><path d="M199.168 764.970667s-102.485333-82.282667-61.504-246.869334c40.981333 102.869333 61.504 226.282667 61.504 226.282667M237.269333 803.221333s81.984 102.869333 245.930667 61.717334c-102.464-41.130667-225.429333-61.717333-225.429333-61.717334" fill="#558B2F" /><path d="M799.317333 497.557333c23.872-24.128 47.36-53.696 59.562667-86.848 13.013333-33.109333 16.746667-68.437333 17.386667-102.848 0.896-34.453333-4.565333-66.048-1.216-99.84-5.013333 34.282667-4.053333 65.642667-6.549334 99.584-1.834667 33.834667-8.725333 67.434667-22.933333 97.344a198.549333 198.549333 0 0 1-26.453333 41.493334c-10.261333 12.629333-22.762667 23.445333-35.52 34.965333-50.752 45.376-103.104 89.258667-155.541334 132.906667l-155.349333 130.176c-35.690667 23.914667-74.389333 42.794667-111.786667 44.842666-97.621333 5.205333-96.448-20.501333-127.658666 10.581334 14.698667 12.885333 31.274667 24.490667 50.197333 32.768a171.413333 171.413333 0 0 0 80.917333 14.165333c55.189333-4.053333 101.056-30.272 139.733334-59.2l1.536-1.130667 0.554666-0.512c50.581333-46.250667 99.754667-93.866667 148.8-141.738666 48.704-48.234667 97.194667-96.618667 144.32-146.709334z" fill="#558B2F" /></svg>